<svg width="18" height="15" viewBox="0 0 18 15" fill="none" xmlns="http://www.w3.org/2000/svg">
<path d="M8.99975 9.00489H9C10.205 9.00489 11.3909 9.12156 12.5583 9.35473C13.7249 9.58773 14.8743 9.93673 16.0068 10.4023C16.4743 10.602 16.8364 10.8847 17.1076 11.2482C17.3748 11.6065 17.5006 11.9848 17.5 12.396V12.3967V14.4912H0.5V12.3967C0.5 11.9845 0.626259 11.6057 0.893552 11.2473C1.16475 10.8837 1.52658 10.6013 1.99314 10.4023C3.12573 9.93611 4.27513 9.58681 5.44168 9.3538C6.60899 9.12065 7.79484 9.00429 8.99975 9.00489ZM9 7.07828C7.86804 7.07828 6.92374 6.7493 6.13976 6.10356C5.35819 5.45982 5 4.72256 5 3.87182C5 3.02108 5.35819 2.28382 6.13976 1.64007C6.92374 0.994337 7.86804 0.665359 9 0.665359C10.132 0.665359 11.0763 0.994337 11.8602 1.64007C12.6418 2.28382 13 3.02108 13 3.87182C13 4.72256 12.6418 5.45982 11.8602 6.10356C11.0763 6.7493 10.132 7.07828 9 7.07828Z" fill="#F6F3FC" stroke="white"/>
</svg>
