<svg width="21" height="18" viewBox="0 0 21 18" fill="none" xmlns="http://www.w3.org/2000/svg">
<g clip-path="url(#clip0_400_18)">
<path d="M7.875 15C7.875 15.825 7.0875 16.5 6.125 16.5C5.1625 16.5 4.38375 15.825 4.38375 15C4.38375 14.175 5.1625 13.5 6.125 13.5C7.0875 13.5 7.875 14.175 7.875 15ZM14.875 13.5C13.9125 13.5 13.1337 14.175 13.1337 15C13.1337 15.825 13.9125 16.5 14.875 16.5C15.8375 16.5 16.625 15.825 16.625 15C16.625 14.175 15.8375 13.5 14.875 13.5ZM15.2215 9.75C15.6196 9.74994 16.0058 9.63354 16.3163 9.42002C16.6268 9.20649 16.8431 8.90859 16.9295 8.5755L18.375 3.75H6.125V3C6.125 2.60218 5.94063 2.22064 5.61244 1.93934C5.28425 1.65804 4.83913 1.5 4.375 1.5H2.625V3H4.375V11.25C4.375 11.6478 4.55937 12.0294 4.88756 12.3107C5.21575 12.592 5.66087 12.75 6.125 12.75H16.625C16.625 12.3522 16.4406 11.9706 16.1124 11.6893C15.7842 11.408 15.3391 11.25 14.875 11.25H6.125V9.75H15.2215Z" fill="#FBFAFF"/>
</g>
<defs>
<clipPath id="clip0_400_18">
<rect width="21" height="18" fill="white"/>
</clipPath>
</defs>
</svg>
