<svg width="23" height="20" viewBox="0 0 23 20" fill="none" xmlns="http://www.w3.org/2000/svg">
<path d="M19.8063 7.02999C17.9847 3.34399 15.0545 0.539995 13.5722 1.06299C11.0548 1.95399 15.0718 6.22699 2.70814 10.596C1.63979 10.975 1.36954 12.484 1.81689 13.388C2.26309 14.29 3.72359 15.189 4.79194 14.812C4.97709 14.746 5.65559 14.556 5.65559 14.556C6.41804 15.447 7.21614 14.919 7.50019 15.484L8.83189 18.144C9.08374 18.646 9.65414 19.111 10.0681 18.974L12.4256 18.195C12.9638 18.017 13.0915 17.599 12.927 17.271C12.7499 16.916 12.0231 16.812 11.815 16.398C11.608 15.986 10.9306 14.66 10.7363 14.242C10.4718 13.674 11.0341 13.211 11.8518 13.138C17.4799 12.626 18.5321 15.65 20.448 14.972C21.9281 14.447 21.6268 10.713 19.8063 7.02999ZM19.1727 13.006C18.8426 13.121 16.6277 11.604 15.2132 8.739C13.7976 5.876 13.9758 3.25899 14.3047 3.14199C14.6336 3.02699 16.7945 4.85899 18.209 7.72199C19.6246 10.585 19.5016 12.889 19.1727 13.006Z" fill="#F6F5F9"/>
</svg>
