<svg width="25" height="21" viewBox="0 0 25 21" fill="none" xmlns="http://www.w3.org/2000/svg">
<path d="M21.5288 7.38149C19.5488 3.51119 16.3638 0.566993 14.7525 1.11614C12.0163 2.05169 16.3825 6.53834 2.94376 11.1258C1.78251 11.5237 1.48876 13.1082 1.97501 14.0574C2.46001 15.0045 4.04751 15.9484 5.20876 15.5526C5.41001 15.4833 6.14751 15.2838 6.14751 15.2838C6.97626 16.2193 7.84376 15.6649 8.15251 16.2582L9.60001 19.0512C9.87376 19.5783 10.4938 20.0665 10.9438 19.9227L13.5063 19.1047C14.0913 18.9178 14.23 18.4789 14.0513 18.1345C13.8588 17.7618 13.0688 17.6526 12.8425 17.2179C12.6175 16.7853 11.8813 15.393 11.67 14.9541C11.3825 14.3577 11.9938 13.8715 12.8825 13.7949C19 13.2573 20.1438 16.4325 22.2263 15.7206C23.835 15.1693 23.5075 11.2486 21.5288 7.38149ZM20.84 13.6563C20.4813 13.777 18.0738 12.1842 16.5363 9.17594C14.9975 6.16979 15.1913 3.42194 15.5488 3.29909C15.9063 3.17834 18.255 5.10194 19.7925 8.10809C21.3313 11.1142 21.1975 13.5334 20.84 13.6563Z" fill="#5F489D"/>
</svg>
